<?xml version="1.0" encoding="UTF-8"?>
<svg width="17px" height="12px" viewBox="0 0 17 12" version="1.1" xmlns="http://www.w3.org/2000/svg" xmlns:xlink="http://www.w3.org/1999/xlink">
    <title>Combined Shape</title>
    <g id="iconEmail" stroke="none" stroke-width="1" fill="none" fill-rule="evenodd">
        <g transform="translate(-82.000000, -1044.000000)" fill="currentColor" fill-rule="nonzero">
            <g transform="translate(82.000000, 534.000000)">
                <g transform="translate(0.000000, 2.000000)">
                    <g transform="translate(-0.000000, 0.000000)">
                        <path d="M0.306000526,509 L6.69162532,515.295282 C7.17009508,515.768151 7.82003902,516.033944 8.49787527,516.033944 C9.17571151,516.033944 9.82565545,515.768151 10.3041252,515.295282 L10.3041252,515.295282 L16.694,509.002093 C16.892737,509.281093 16.9995638,509.613529 17,509.954338 L17,509.954338 L17,518.325723 C17,519.250401 16.2388841,520 15.3000001,520 L15.3000001,520 L1.70000048,520 C0.761116437,520 -2.84217094e-14,519.250401 -2.84217094e-14,518.325723 L-2.84217094e-14,518.325723 L-2.84217094e-14,509.954338 C-0.00027606496,509.612772 0.106596704,509.279463 0.306000526,509 L0.306000526,509 Z M15.2567568,508 C15.514723,508.000162 15.7691366,508.060427 16,508.17606 L16,508.17606 L9.69510135,514.501499 C9.37839139,514.820438 8.9484389,514.999774 8.5,515 C8.05277147,515.002027 7.6229886,514.825813 7.30489865,514.509984 L7.30489865,514.509984 L1,508.17606 C1.23086342,508.060427 1.48527704,508.000162 1.74324324,508 L1.74324324,508 Z"></path>
                    </g>
                </g>
            </g>
        </g>
    </g>
</svg>