<?xml version="1.0" encoding="UTF-8"?>
<svg width="24px" height="25px" viewBox="0 0 24 25" version="1.1" xmlns="http://www.w3.org/2000/svg" xmlns:xlink="http://www.w3.org/1999/xlink">
    <!-- Generator: Sketch 52.4 (67378) - http://www.bohemiancoding.com/sketch -->
    <title>Search icon</title>
    <desc>Created with Sketch.</desc>
    <defs>
        <filter x="-46.2%" y="-46.3%" width="190.4%" height="192.6%" filterUnits="objectBoundingBox" id="filter-1">
            <feMorphology radius="0.5" operator="dilate" in="SourceAlpha" result="shadowSpreadOuter1"></feMorphology>
            <feOffset dx="0" dy="0" in="shadowSpreadOuter1" result="shadowOffsetOuter1"></feOffset>
            <feGaussianBlur stdDeviation="10" in="shadowOffsetOuter1" result="shadowBlurOuter1"></feGaussianBlur>
            <feColorMatrix values="0 0 0 0 0   0 0 0 0 0   0 0 0 0 0  0 0 0 0.111950861 0" type="matrix" in="shadowBlurOuter1" result="shadowMatrixOuter1"></feColorMatrix>
            <feMerge>
                <feMergeNode in="shadowMatrixOuter1"></feMergeNode>
                <feMergeNode in="SourceGraphic"></feMergeNode>
            </feMerge>
        </filter>
    </defs>
    <g id="Symbols" stroke="none" stroke-width="1" fill="#000" fill-rule="evenodd">
        <g id="Inner-hero" transform="translate(-708.000000, -193.000000)">
            <g id="Search-button" transform="translate(693.000000, 178.000000)">
                <g id="noun_Search_1157129_000000" transform="translate(15.000000, 15.000000)">
                    <path d="M23.4006275,22.385616 L18.858798,17.8602424 C20.5523615,15.9682783 21.6044237,13.4627042 21.6044237,10.7270264 C21.6044237,4.82103032 16.7803336,0.014418811 10.8528612,0.014418811 C4.9253888,0.014418811 0.101298701,4.82103032 0.101298701,10.7270264 C0.101298701,16.6330224 4.9253888,21.4396339 10.8528612,21.4396339 C12.9569856,21.4396339 14.9071497,20.826024 16.5493931,19.8033407 L21.270843,24.5076838 C21.5531036,24.7889218 21.9380044,24.9423242 22.3229052,24.9423242 C22.707806,24.9423242 23.0927068,24.7889218 23.3749674,24.5076838 C23.9908087,23.9196409 23.9908087,22.9736589 23.4006275,22.385616 Z M3.10352498,10.7270264 C3.10352498,6.48289068 6.56763224,3.00576746 10.8528612,3.00576746 C15.1380902,3.00576746 18.5765374,6.48289068 18.5765374,10.7270264 C18.5765374,14.9711621 15.1124301,18.4482853 10.8528612,18.4482853 C6.59329229,18.4482853 3.10352498,14.9967292 3.10352498,10.7270264 Z" id="Shape"></path>
                </g>
            </g>
        </g>
    </g>
</svg>
