<?xml version="1.0" encoding="UTF-8"?>
<svg width="18px" height="18px" viewBox="0 0 18 18" version="1.1" xmlns="http://www.w3.org/2000/svg" xmlns:xlink="http://www.w3.org/1999/xlink">
    <title>Search Icon</title>
    <g stroke="none" stroke-width="1" fill="none" fill-rule="evenodd">
        <g transform="translate(-674.000000, -355.000000)" fill="currentColor" fill-rule="nonzero">
            <g transform="translate(0.000000, 100.000000)">
                <g transform="translate(84.000000, 131.000000)">
                    <g transform="translate(0.000000, 109.000000)">
                        <g transform="translate(575.000000, 1.000000)">
                            <path d="M32.7379619,30.4125561 L28.518477,26.1883408 C29.5397536,24.8699552 30.1041433,23.2556054 30.1041433,21.5605381 C30.1041433,19.5426009 29.324748,17.632287 27.9003359,16.206278 C26.4759239,14.7802691 24.5677492,14 22.5520717,14 C20.5363942,14 18.6282195,14.7802691 17.2038074,16.206278 C15.7793953,17.632287 15,19.5426009 15,21.5605381 C15,23.5784753 15.7793953,25.4887892 17.2038074,26.9147982 C18.6282195,28.3408072 20.5363942,29.1210762 22.5520717,29.1210762 C24.2452408,29.1210762 25.8577828,28.5560538 27.174692,27.5336323 L31.3941769,31.7309417 C31.5823068,31.9192825 31.8241881,32 32.0660694,32 C32.3079507,32 32.549832,31.9192825 32.7379619,31.7309417 C33.087346,31.3811659 33.087346,30.7623318 32.7379619,30.4125561 Z M18.5475924,25.5695067 C17.4725644,24.4932735 16.881299,23.0672646 16.881299,21.5605381 C16.881299,20.0538117 17.4725644,18.6278027 18.5475924,17.5515695 C19.6226204,16.4753363 21.0470325,15.8834081 22.5520717,15.8834081 C24.0571109,15.8834081 25.481523,16.4753363 26.556551,17.5515695 C27.6315789,18.6278027 28.2228443,20.0538117 28.2228443,21.5605381 C28.2228443,23.0672646 27.6315789,24.4932735 26.556551,25.5695067 C25.481523,26.6457399 24.0571109,27.2376682 22.5520717,27.2376682 C21.0470325,27.2376682 19.6226204,26.6457399 18.5475924,25.5695067 Z"></path>
                        </g>
                    </g>
                </g>
            </g>
        </g>
    </g>
</svg>